<?xml version="1.0" standalone="no"?>
<!DOCTYPE svg PUBLIC "-//W3C//DTD SVG 20010904//EN"
 "http://www.w3.org/TR/2001/REC-SVG-20010904/DTD/svg10.dtd">
<svg version="1.0" xmlns="http://www.w3.org/2000/svg"
 width="128.000000pt" height="128.000000pt" viewBox="0 0 128.000000 128.000000"
 preserveAspectRatio="xMidYMid meet">
<metadata>
Created by potrace 1.14, written by Peter Selinger 2001-2017
</metadata>
<g transform="translate(0.000000,128.000000) scale(0.100000,-0.100000)"
fill="#000000" stroke="none">
<path d="M512 1189 c-65 -12 -149 -54 -186 -91 -34 -36 -70 -88 -60 -88 4 0 1
-6 -5 -14 -21 -26 -24 -132 -6 -191 17 -53 79 -135 103 -135 6 0 12 -4 14 -8
5 -14 108 -59 188 -82 41 -11 92 -28 113 -35 20 -8 39 -15 42 -15 3 0 7 -1 10
-1 3 -1 8 -2 13 -3 30 -6 106 -53 122 -76 41 -57 10 -144 -64 -182 -33 -17
-59 -22 -131 -22 -49 0 -103 3 -120 8 -16 4 -34 8 -40 10 -16 4 -89 27 -105
33 -8 4 -18 7 -22 8 -5 2 -9 3 -10 5 -22 17 -115 -4 -119 -28 -11 -61 6 -104
48 -120 33 -13 65 -22 76 -22 4 0 21 -7 37 -15 16 -8 31 -15 32 -14 2 1 23 -4
48 -11 58 -16 211 -21 274 -9 68 13 156 55 187 89 35 38 72 90 64 90 -3 0 -1
10 6 21 20 37 22 123 5 181 -17 59 -66 119 -126 156 -41 24 -200 85 -200 76 0
-4 -7 -1 -15 6 -8 7 -15 10 -15 7 0 -3 -16 1 -35 9 -19 8 -37 14 -40 14 -3 0
-6 0 -7 1 -2 0 -10 2 -19 4 -40 7 -130 59 -147 83 -42 63 -15 145 62 184 56
29 177 32 284 8 44 -9 96 -16 116 -15 48 3 77 36 71 82 -7 54 -37 73 -139 89
-22 3 -44 8 -49 11 -15 9 -211 11 -255 2z"/>
</g>
</svg>
